<svg width="280" height="50" viewBox="0 0 280 50" fill="none" xmlns="http://www.w3.org/2000/svg">
<path d="M76.6419 13.2633L75.7422 14.4538C76.0126 14.0336 76.3109 13.6368 76.6419 13.2633Z" fill="#1086BE"/>
<path d="M92.8078 28.5855C91.7543 27.5304 90.1367 27.367 88.8501 28.1187C87.4097 28.9637 85.7315 29.4492 83.9414 29.4492C78.5666 29.4492 74.2126 25.0841 74.2126 19.706C74.2126 17.7779 74.772 15.9805 75.7323 14.4725L68.3623 24.2718C70.3295 31.0272 76.5621 35.9618 83.9414 35.9618C86.9808 35.9618 89.8244 35.1261 92.2577 33.6696C94.0431 32.6005 94.3322 30.1168 92.8591 28.6415L92.8031 28.5855H92.8078ZM70.4088 10.7284L71.5695 9.18774C71.15 9.67794 70.763 10.1915 70.4088 10.7284Z" fill="#F06B25"/>
<path d="M92.8595 10.775L92.8082 10.8263C91.7547 11.8814 90.1371 12.0448 88.8505 11.2932C87.41 10.4482 85.7319 9.96263 83.9418 9.96263C81.033 9.96263 78.4225 11.2371 76.6417 13.2633C76.3107 13.6368 76.0077 14.0383 75.7374 14.4631V14.4724L68.3627 24.2717L63.1463 31.2045C60.2095 34.1457 56.1539 35.9664 51.6741 35.9664H51.6182C51.5576 35.9664 51.497 35.9664 51.4317 35.9664C42.5793 35.8403 35.4424 28.6088 35.4424 19.7152C35.4424 10.8216 42.7098 3.46402 51.6741 3.46402C54.7135 3.46402 57.5571 4.29969 59.9904 5.75627C61.7758 6.82537 62.0649 9.30903 60.5918 10.7843L60.5358 10.8403C59.4823 11.8954 57.8647 12.0588 56.5828 11.3072C55.1424 10.4622 53.4642 9.97663 51.6741 9.97663C46.2993 9.97663 41.9453 14.337 41.9453 19.7199C41.9453 25.1027 46.2993 29.4631 51.6741 29.4631C54.2287 29.4631 56.5595 28.4734 58.2936 26.8534L58.4288 26.676L70.4138 10.7423L71.5745 9.20165C74.5487 5.69558 78.9865 3.46869 83.9465 3.46869H84.0257C87.0371 3.48269 89.8527 4.31836 92.2628 5.76561C94.0482 6.8347 94.3325 9.31837 92.8641 10.7936L92.8595 10.775Z" fill="#1086BE"/>
<path d="M16.2271 3.46402C7.26279 3.46402 0 10.7423 0 19.7152C0 28.6881 7.26279 35.9664 16.2271 35.9664C25.1914 35.9664 32.4495 28.6881 32.4495 19.7152C32.4495 10.7423 25.1867 3.46402 16.2271 3.46402ZM16.2271 29.4491C10.8569 29.4491 6.49829 25.0887 6.49829 19.7105C6.49829 14.3324 10.8522 9.96729 16.2271 9.96729C21.6019 9.96729 25.9512 14.3277 25.9512 19.7105C25.9512 25.0934 21.5973 29.4491 16.2271 29.4491Z" fill="#1086BE"/>
<path d="M112.643 3.46411C103.492 3.51547 96.1317 11.1579 96.528 20.4202C96.8823 28.7489 103.609 35.537 111.925 35.9431C115.883 36.1345 119.556 34.9067 122.465 32.7218C122.465 33.6089 122.824 34.4119 123.402 34.9954C123.985 35.579 124.787 35.9385 125.672 35.9385H125.756C127.528 35.9385 128.963 34.5006 128.963 32.7265V19.9861C128.963 10.9338 121.682 3.4221 112.643 3.47345V3.46411ZM112.736 29.4492C107.366 29.4492 103.008 25.0888 103.008 19.7106C103.008 14.3325 107.362 9.96739 112.736 9.96739C118.111 9.96739 122.461 14.3278 122.461 19.7106C122.461 25.0935 118.107 29.4492 112.736 29.4492Z" fill="#1086BE"/>
<path d="M173.096 14.9299V32.6844C173.096 34.4771 171.646 35.9337 169.851 35.9337C168.061 35.9337 166.607 34.4817 166.607 32.6844V14.8552C166.607 12.1801 164.42 9.91123 161.749 9.95792C159.157 10.0046 157.074 12.1241 157.074 14.7292V32.6797C157.074 34.4724 155.624 35.929 153.829 35.929C152.039 35.929 150.585 34.4771 150.585 32.6797V14.8505C150.585 12.1755 148.398 9.90189 145.727 9.95325C143.14 10.0046 141.056 12.1194 141.056 14.7245V32.675C141.056 34.4677 139.607 35.9243 137.812 35.9243C136.022 35.9243 134.567 34.4724 134.567 32.675V14.9206C134.567 8.65072 139.69 3.37995 145.951 3.45464C149.032 3.49199 151.815 4.7665 153.829 6.80665C155.843 4.76183 158.631 3.48732 161.717 3.45464C167.972 3.38928 173.091 8.66006 173.091 14.9206L173.096 14.9299Z" fill="#1086BE"/>
<path d="M191.737 16.6618H191.713C185.709 15.2286 185.052 14.2856 185.052 12.6142V12.5255C185.052 10.8449 186.772 9.67305 189.238 9.67305C190.739 9.67305 192.235 10.0185 193.774 10.7235C194.039 10.8449 194.925 11.3817 195.862 11.9653C197.377 12.9083 199.363 12.4648 200.337 10.9662C201.335 9.42561 200.878 7.36679 199.321 6.39573C198.393 5.81683 197.536 5.29396 197.27 5.16324C194.855 3.99143 192.235 3.42188 189.326 3.42188C182.777 3.42188 178.204 7.36212 178.204 13.0017V13.0857C178.204 19.1362 182.124 21.265 188.907 22.9084C194.268 24.1455 195.172 25.1166 195.172 26.8206V26.9093C195.172 28.744 193.312 29.9765 190.548 29.9765C189.541 29.9765 187.653 29.533 185.961 28.772C184.618 28.1698 183.271 27.4275 182.162 26.7692C180.651 25.8729 178.707 26.3211 177.752 27.7916L177.728 27.829C176.74 29.3509 177.183 31.3864 178.707 32.3668C179.845 33.0951 180.992 33.8141 181.369 34.0101C184.171 35.4667 187.247 36.223 190.422 36.223C197.47 36.223 202.025 32.3575 202.025 26.3817V26.2977C202.025 21.2323 199.046 18.4359 191.746 16.6525L191.737 16.6618Z" fill="#1086BE"/>
<path d="M275.464 9.08498C277.969 9.08498 280 7.05124 280 4.54249C280 2.03374 277.969 0 275.464 0C272.959 0 270.929 2.03374 270.929 4.54249C270.929 7.05124 272.959 9.08498 275.464 9.08498Z" fill="#1086BE"/>
<path d="M230.633 35.9337C233.138 35.9337 235.169 33.9 235.169 31.3913C235.169 28.8825 233.138 26.8488 230.633 26.8488C228.128 26.8488 226.098 28.8825 226.098 31.3913C226.098 33.9 228.128 35.9337 230.633 35.9337Z" fill="#1086BE"/>
<path d="M263.54 50C257.988 50 252.879 46.9701 250.217 42.0868L234.503 13.3193C233.757 11.9561 232.372 11.1438 230.834 11.1578C229.282 11.1671 227.92 11.9934 227.193 13.366L212.062 41.9188C209.418 46.9048 204.281 50 198.645 50H4.62446C2.82041 50 1.36133 48.5388 1.36133 46.732C1.36133 44.9253 2.82041 43.4641 4.62446 43.4641H198.645C201.857 43.4641 204.789 41.6994 206.295 38.8562L221.427 10.3034C223.268 6.82538 226.858 4.64984 230.792 4.62183C230.815 4.62183 230.839 4.62183 230.862 4.62183C234.768 4.62183 238.353 6.74601 240.227 10.1821L255.941 38.9496C257.461 41.732 260.375 43.4594 263.54 43.4594C268.318 43.4594 272.201 39.5658 272.201 34.7853V17.1008C272.201 15.2941 273.66 13.8329 275.464 13.8329C277.268 13.8329 278.727 15.2941 278.727 17.1008V34.7853C278.727 43.1746 271.912 49.9954 263.54 49.9954V50Z" fill="#F06B25"/>
</svg>
