<svg width="29" height="30" viewBox="0 0 29 30" fill="none" xmlns="http://www.w3.org/2000/svg">
<path d="M19.8899 19.464C18.9633 20.3132 17.7881 21.369 15.6636 21.369H14.3754C12.8385 21.369 11.4373 20.7952 10.4429 19.7854C9.47104 18.7755 8.92863 17.3984 8.92863 15.9066V14.1394C8.92863 12.6475 9.47104 11.2705 10.4429 10.2606C11.4373 9.22781 12.8385 8.67699 14.3754 8.67699H15.641C17.7655 8.67699 18.9407 9.73274 19.8673 10.5819C20.8392 11.4541 21.6754 12.2115 23.9129 12.2115C24.2519 12.2115 24.5909 12.1885 24.9299 12.1197V12.0967C24.7943 11.7524 24.6361 11.4311 24.4553 11.1098L22.9636 8.47043C21.585 6.06055 19.0537 4.56873 16.2964 4.56873H13.3358C10.5785 4.56873 8.0472 6.06055 6.66857 8.47043L5.17692 11.1098C3.79828 13.5197 3.79828 16.5033 5.17692 18.9132L6.66857 21.5526C8.0472 23.9625 10.5785 25.4543 13.3358 25.4543H16.319C19.0763 25.4543 21.6076 23.9625 22.9862 21.5526L24.4779 18.9132C24.6587 18.5919 24.8169 18.2706 24.9525 17.9263V17.9034C24.6135 17.8575 24.2745 17.8116 23.9355 17.8116C21.698 17.8345 20.8618 18.5919 19.8899 19.464Z" fill="white"/>
<path d="M15.6636 10.2606H14.3753C12.0475 10.2606 10.5106 11.9589 10.5106 14.1164V15.8836C10.5106 18.064 12.0475 19.7394 14.3753 19.7394H15.641C19.0537 19.7394 18.7825 16.2049 23.9354 16.2049C24.4326 16.2049 24.9072 16.2508 25.3818 16.3426C25.54 15.4475 25.54 14.5295 25.3818 13.6344C24.9072 13.7262 24.41 13.7721 23.9354 13.7721C18.7825 13.795 19.0537 10.2606 15.6636 10.2606Z" fill="white"/>
<path d="M28.3426 17.6509C27.4612 17.0082 26.4667 16.5492 25.3819 16.3656V16.3885C25.2915 16.9164 25.1559 17.4214 24.9525 17.9033C25.8339 18.041 26.6701 18.3853 27.3934 18.9361V18.9591C25.2463 26.028 17.8785 29.9756 10.9175 27.7953C3.9565 25.6149 0.0691889 18.1328 2.21625 11.0639C4.36331 3.99491 11.7311 0.0473108 18.6921 2.22767C22.8506 3.53589 26.1051 6.84086 27.3934 11.0639V11.0868C26.6701 11.6147 25.8339 11.959 24.9525 12.0967C25.1559 12.5787 25.2915 13.1065 25.3819 13.6115V13.6344C26.4441 13.4278 27.4612 12.9918 28.3426 12.3491C29.1788 11.7065 29.0206 10.995 28.885 10.5819C26.4893 2.66374 18.2175 -1.76583 10.4203 0.666993C2.62306 3.09982 -1.73886 11.4999 0.656805 19.4181C3.05247 27.3363 11.3243 31.7658 19.1215 29.333C23.7773 27.8641 27.4386 24.169 28.885 19.4181C29.0206 19.005 29.2014 18.2935 28.3426 17.6509Z" fill="white"/>
</svg>
