<svg width="20" height="25" viewBox="0 0 20 25" fill="none" xmlns="http://www.w3.org/2000/svg">
<path d="M17.7592 4.87447L14.2789 4.07478L14.3608 3.71821C14.6033 2.66286 13.942 1.607 12.8867 1.36457L9.34072 0.549832C8.83114 0.432691 8.30511 0.521894 7.85951 0.800941C7.41396 1.07999 7.10412 1.51433 6.98703 2.02396L6.90509 2.38054L3.42476 1.58085C2.36215 1.33658 1.29968 2.00239 1.05565 3.06468L0.717965 4.53435C0.690121 4.65552 0.711543 4.78278 0.777543 4.88811C0.843496 4.99349 0.948637 5.06835 1.06981 5.09614L13.6016 7.97558H1.47537C1.34332 7.97558 1.21737 8.03127 1.12859 8.12896C1.03972 8.22669 0.996215 8.35729 1.00873 8.48877L2.37509 22.8292C2.46584 23.7817 3.25578 24.5 4.21259 24.5H6.84532H12.365H14.9977C15.9545 24.5 16.7445 23.7817 16.8353 22.8292L18.151 9.0209L18.3435 9.06515C18.3789 9.07325 18.4142 9.07714 18.4489 9.07714C18.6625 9.07714 18.8555 8.93024 18.9053 8.71325L19.243 7.24358C19.3609 6.73063 19.2711 6.20113 18.9902 5.75263C18.7094 5.30422 18.2722 4.99236 17.7592 4.87447ZM15.902 22.7403C15.8574 23.209 15.4686 23.5625 14.9978 23.5625H12.365H6.84537H4.21264C3.74178 23.5625 3.35304 23.209 3.30842 22.7403L1.99095 8.91313H17.2196L15.902 22.7403ZM7.90076 2.23386C7.96179 1.96832 8.12389 1.74158 8.35718 1.59547C8.59043 1.44936 8.86498 1.40244 9.13081 1.46352L12.6768 2.2783C13.2283 2.405 13.5739 2.95682 13.4472 3.5083L13.3652 3.86488L7.81882 2.59049L7.90076 2.23386ZM18.3294 7.03372L18.0966 8.0465L1.73665 4.28746L1.96939 3.27468C2.09768 2.71621 2.65657 2.36643 3.21486 2.49458L13.612 4.88352C13.6121 4.88352 13.6121 4.88357 13.6122 4.88357C13.6122 4.88357 13.6122 4.88357 13.6123 4.88357L17.5493 5.78816C18.1077 5.9165 18.4577 6.47525 18.3294 7.03372ZM12.6314 22.0869L13.2041 10.3431C13.2167 10.0845 13.4362 9.88588 13.6952 9.89774C13.9538 9.91039 14.1531 10.1302 14.1405 10.3888L13.5678 22.1325C13.5555 22.3834 13.3483 22.5785 13.1 22.5785C13.0923 22.5785 13.0845 22.5783 13.0767 22.5779C12.8181 22.5653 12.6188 22.3454 12.6314 22.0869ZM5.64265 22.1325L5.06998 10.3888C5.05737 10.1301 5.25673 9.91035 5.51534 9.89769C5.7739 9.88579 5.99379 10.0844 6.0064 10.3431L6.57907 22.0868C6.59168 22.3454 6.39228 22.5652 6.13371 22.5779C6.12593 22.5783 6.1182 22.5785 6.11051 22.5785C5.86203 22.5785 5.65489 22.3834 5.64265 22.1325ZM9.13648 22.1097V10.3659C9.13648 10.1071 9.34639 9.89718 9.60523 9.89718C9.86407 9.89718 10.074 10.1071 10.074 10.3659V22.1097C10.074 22.3685 9.86407 22.5785 9.60523 22.5785C9.34639 22.5785 9.13648 22.3685 9.13648 22.1097Z" fill="#E5E5E5"/>
</svg>
