<svg width="24" height="25" viewBox="0 0 24 25" fill="none" xmlns="http://www.w3.org/2000/svg">
<g clip-path="url(#clip0_1701_14254)">
<path d="M19.7592 4.87447L16.2789 4.07478L16.3608 3.71821C16.6033 2.66286 15.942 1.607 14.8867 1.36457L11.3407 0.549832C10.8311 0.432691 10.3051 0.521894 9.85951 0.800941C9.41396 1.07999 9.10412 1.51433 8.98703 2.02396L8.90509 2.38054L5.42476 1.58085C4.36215 1.33658 3.29968 2.00239 3.05565 3.06468L2.71797 4.53435C2.69012 4.65552 2.71154 4.78278 2.77754 4.88811C2.8435 4.99349 2.94864 5.06835 3.06981 5.09614L15.6016 7.97558H3.47537C3.34332 7.97558 3.21737 8.03127 3.12859 8.12896C3.03972 8.22669 2.99622 8.35729 3.00873 8.48877L4.37509 22.8292C4.46584 23.7817 5.25578 24.5 6.21259 24.5H8.84532H14.365H16.9977C17.9545 24.5 18.7445 23.7817 18.8353 22.8292L20.151 9.0209L20.3435 9.06515C20.3789 9.07325 20.4142 9.07714 20.4489 9.07714C20.6625 9.07714 20.8555 8.93024 20.9053 8.71325L21.243 7.24358C21.3609 6.73063 21.2711 6.20113 20.9902 5.75263C20.7094 5.30422 20.2722 4.99236 19.7592 4.87447ZM17.902 22.7403C17.8574 23.209 17.4686 23.5625 16.9978 23.5625H14.365H8.84537H6.21264C5.74178 23.5625 5.35304 23.209 5.30842 22.7403L3.99095 8.91313H19.2196L17.902 22.7403ZM9.90076 2.23386C9.96179 1.96832 10.1239 1.74158 10.3572 1.59547C10.5904 1.44936 10.865 1.40244 11.1308 1.46352L14.6768 2.2783C15.2283 2.405 15.5739 2.95682 15.4472 3.5083L15.3652 3.86488L9.81882 2.59049L9.90076 2.23386ZM20.3294 7.03372L20.0966 8.0465L3.73665 4.28746L3.96939 3.27468C4.09768 2.71621 4.65657 2.36643 5.21486 2.49458L15.612 4.88352C15.6121 4.88352 15.6121 4.88357 15.6122 4.88357C15.6122 4.88357 15.6122 4.88357 15.6123 4.88357L19.5493 5.78816C20.1077 5.9165 20.4577 6.47525 20.3294 7.03372ZM14.6314 22.0869L15.2041 10.3431C15.2167 10.0845 15.4362 9.88588 15.6952 9.89774C15.9538 9.91039 16.1531 10.1302 16.1405 10.3888L15.5678 22.1325C15.5555 22.3834 15.3483 22.5785 15.1 22.5785C15.0923 22.5785 15.0845 22.5783 15.0767 22.5779C14.8181 22.5653 14.6188 22.3454 14.6314 22.0869ZM7.64265 22.1325L7.06998 10.3888C7.05737 10.1301 7.25673 9.91035 7.51534 9.89769C7.7739 9.88579 7.99379 10.0844 8.0064 10.3431L8.57907 22.0868C8.59168 22.3454 8.39228 22.5652 8.13371 22.5779C8.12593 22.5783 8.1182 22.5785 8.11051 22.5785C7.86203 22.5785 7.65489 22.3834 7.64265 22.1325ZM11.1365 22.1097V10.3659C11.1365 10.1071 11.3464 9.89718 11.6052 9.89718C11.8641 9.89718 12.074 10.1071 12.074 10.3659V22.1097C12.074 22.3685 11.8641 22.5785 11.6052 22.5785C11.3464 22.5785 11.1365 22.3685 11.1365 22.1097Z" fill="#FF0000"/>
</g>
<defs>
<clipPath id="clip0_1701_14254">
<rect width="24" height="24" fill="white" transform="translate(0 0.5)"/>
</clipPath>
</defs>
</svg>
