<svg width="167" height="31" viewBox="0 0 167 31" fill="none" xmlns="http://www.w3.org/2000/svg">
<path d="M45.7129 8.05273L45.1749 8.77635C45.3365 8.52096 45.5149 8.27975 45.7129 8.05273Z" fill="#1086BE"/>
<path d="M55.3531 17.3553C54.7247 16.7147 53.76 16.6155 52.9926 17.0719C52.1335 17.5849 51.1326 17.8797 50.0649 17.8797C46.8592 17.8797 44.2624 15.2295 44.2624 11.9642C44.2624 10.7935 44.596 9.70227 45.1688 8.78673L40.7731 14.7363C41.9464 18.8377 45.6637 21.8338 50.0649 21.8338C51.8777 21.8338 53.5737 21.3264 55.025 20.442C56.0899 19.793 56.2622 18.285 55.3837 17.3893L55.3503 17.3553H55.3531ZM41.9937 6.51349L42.686 5.57812C42.4357 5.87574 42.205 6.18753 41.9937 6.51349Z" fill="#F06B25"/>
<path d="M55.384 6.54228L55.3534 6.57346C54.7251 7.21405 53.7603 7.31326 52.9929 6.85691C52.1338 6.34387 51.1329 6.04909 50.0653 6.04909C48.3303 6.04909 46.7734 6.8229 45.7113 8.05305C45.5139 8.27981 45.3332 8.52358 45.1719 8.78151V8.78718L40.7735 14.7367L37.6623 18.9459C35.9107 20.7316 33.4918 21.837 30.8199 21.837H30.7866C30.7504 21.837 30.7143 21.837 30.6754 21.837C25.3955 21.7605 21.1389 17.3699 21.1389 11.9703C21.1389 6.57063 25.4734 2.10351 30.8199 2.10351C32.6327 2.10351 34.3287 2.61088 35.78 3.49524C36.8449 4.14433 37.0172 5.65226 36.1387 6.54795L36.1053 6.58197C35.477 7.22256 34.5122 7.32176 33.7476 6.86541C32.8885 6.35238 31.8876 6.05759 30.8199 6.05759C27.6142 6.05759 25.0174 8.70498 25.0174 11.9731C25.0174 15.2413 27.6142 17.8886 30.8199 17.8886C32.3435 17.8886 33.7337 17.2877 34.768 16.3042L34.8486 16.1965L41.9968 6.52244L42.6891 5.58707C44.4629 3.45839 47.1098 2.10635 50.068 2.10635H50.1153C51.9114 2.11485 53.5907 2.62222 55.0281 3.5009C56.093 4.15 56.2626 5.65793 55.3868 6.55362L55.384 6.54228Z" fill="#1086BE"/>
<path d="M9.67828 2.10351C4.33173 2.10351 0 6.52244 0 11.9703C0 17.4181 4.33173 21.837 9.67828 21.837C15.0248 21.837 19.3538 17.4181 19.3538 11.9703C19.3538 6.52244 15.022 2.10351 9.67828 2.10351ZM9.67828 17.8801C6.47535 17.8801 3.87576 15.2327 3.87576 11.9674C3.87576 8.70215 6.47257 6.05192 9.67828 6.05192C12.884 6.05192 15.478 8.69931 15.478 11.9674C15.478 15.2356 12.8812 17.8801 9.67828 17.8801Z" fill="#1086BE"/>
<path d="M67.1836 2.10351C61.7258 2.13469 57.3357 6.77471 57.572 12.3983C57.7833 17.455 61.7953 21.5763 66.7554 21.8229C69.1159 21.9391 71.3068 21.1936 73.0417 19.8671C73.0417 20.4056 73.2558 20.8932 73.6005 21.2475C73.9481 21.6018 74.4263 21.82 74.9546 21.82H75.0046C76.0611 21.82 76.9175 20.947 76.9175 19.8699V12.1347C76.9175 6.63866 72.5746 2.07801 67.1836 2.10918V2.10351ZM67.2392 17.8801C64.0363 17.8801 61.4367 15.2327 61.4367 11.9674C61.4367 8.70215 64.0335 6.05192 67.2392 6.05192C70.4449 6.05192 73.0389 8.69931 73.0389 11.9674C73.0389 15.2356 70.4421 17.8801 67.2392 17.8801Z" fill="#1086BE"/>
<path d="M103.239 9.06524V19.8447C103.239 20.9331 102.374 21.8175 101.304 21.8175C100.236 21.8175 99.3689 20.936 99.3689 19.8447V9.01989C99.3689 7.39574 98.065 6.01819 96.4718 6.04654C94.926 6.07488 93.6832 7.36173 93.6832 8.94336V19.8419C93.6832 20.9303 92.8185 21.8147 91.7481 21.8147C90.6805 21.8147 89.813 20.9331 89.813 19.8419V9.01705C89.813 7.39291 88.509 6.01252 86.9159 6.0437C85.3728 6.07488 84.13 7.35889 84.13 8.94052V19.839C84.13 20.9275 83.2653 21.8118 82.1949 21.8118C81.1273 21.8118 80.2598 20.9303 80.2598 19.839V9.05957C80.2598 5.25289 83.3154 2.05278 87.0494 2.09813C88.8871 2.12081 90.547 2.89462 91.7481 4.13328C92.9492 2.89178 94.6118 2.11797 96.4524 2.09813C100.184 2.05845 103.236 5.25856 103.236 9.05957L103.239 9.06524Z" fill="#1086BE"/>
<path d="M114.357 10.1167H114.343C110.762 9.24648 110.37 8.67392 110.37 7.65918V7.60533C110.37 6.58492 111.396 5.87347 112.867 5.87347C113.762 5.87347 114.655 6.08322 115.572 6.51122C115.731 6.58492 116.259 6.91088 116.818 7.26519C117.721 7.83775 118.906 7.56848 119.487 6.65862C120.082 5.72324 119.809 4.47324 118.881 3.88368C118.327 3.5322 117.816 3.21474 117.657 3.13538C116.217 2.42393 114.655 2.07812 112.92 2.07812C109.013 2.07812 106.286 4.47041 106.286 7.89444V7.94546C106.286 11.6189 108.624 12.9114 112.669 13.9092C115.867 14.6603 116.406 15.2499 116.406 16.2845V16.3383C116.406 17.4523 115.297 18.2005 113.648 18.2005C113.048 18.2005 111.922 17.9313 110.912 17.4693C110.112 17.1036 109.308 16.6529 108.646 16.2533C107.745 15.7091 106.586 15.9812 106.016 16.874L106.002 16.8967C105.413 17.8207 105.677 19.0566 106.586 19.6518C107.265 20.094 107.948 20.5305 108.174 20.6495C109.845 21.5339 111.68 21.9931 113.573 21.9931C117.777 21.9931 120.493 19.6461 120.493 16.018V15.967C120.493 12.8916 118.717 11.1938 114.363 10.111L114.357 10.1167Z" fill="#1086BE"/>
<path d="M164.295 5.51587C165.789 5.51587 167 4.2811 167 2.75793C167 1.23477 165.789 0 164.295 0C162.801 0 161.589 1.23477 161.589 2.75793C161.589 4.2811 162.801 5.51587 164.295 5.51587Z" fill="#1086BE"/>
<path d="M137.556 21.8166C139.05 21.8166 140.262 20.5819 140.262 19.0587C140.262 17.5355 139.05 16.3008 137.556 16.3008C136.062 16.3008 134.851 17.5355 134.851 19.0587C134.851 20.5819 136.062 21.8166 137.556 21.8166Z" fill="#1086BE"/>
<path d="M157.182 30.3566C153.871 30.3566 150.824 28.5171 149.236 25.5522L139.864 8.08627C139.419 7.2586 138.593 6.76541 137.676 6.77391C136.75 6.77958 135.938 7.28128 135.504 8.11461L126.479 25.4502C124.903 28.4774 121.839 30.3566 118.478 30.3566H2.75804C1.68206 30.3566 0.81182 29.4695 0.81182 28.3725C0.81182 27.2756 1.68206 26.3884 2.75804 26.3884H118.478C120.393 26.3884 122.142 25.317 123.04 23.5908L132.065 6.2552C133.163 4.14353 135.304 2.82267 137.651 2.80566C137.665 2.80566 137.678 2.80566 137.692 2.80566C140.022 2.80566 142.16 4.09534 143.278 6.18151L152.65 23.6475C153.557 25.3368 155.294 26.3856 157.182 26.3856C160.032 26.3856 162.348 24.0216 162.348 21.1191V10.3822C162.348 9.28524 163.218 8.39806 164.294 8.39806C165.37 8.39806 166.241 9.28524 166.241 10.3822V21.1191C166.241 26.2127 162.176 30.3538 157.182 30.3538V30.3566Z" fill="#F06B25"/>
</svg>
